<svg xmlns="http://www.w3.org/2000/svg" width="1600" height="900" viewBox="0 0 1600 900">
  <defs><linearGradient id="g" x1="0" x2="1" y1="0" y2="1"><stop offset="0" stop-color="#071224"/><stop offset="1" stop-color="#0b3a63"/></linearGradient></defs>
  <rect width="100%" height="100%" fill="url(#g)"/>
  <g fill="#07233a" opacity="0.6">
    <rect x="0" y="400" width="120" height="500" rx="6"/><rect x="140" y="320" width="90" height="580" rx="6"/>
    <rect x="260" y="360" width="140" height="540" rx="6"/><rect x="420" y="300" width="200" height="600" rx="6"/>
    <rect x="640" y="380" width="120" height="520" rx="6"/><rect x="780" y="340" width="160" height="560" rx="6"/>
    <rect x="960" y="360" width="120" height="540" rx="6"/><rect x="1100" y="300" width="260" height="600" rx="6"/><rect x="1380" y="420" width="220" height="480" rx="6"/>
  </g>
  <polyline points="0,650 150,580 300,620 450,540 600,560 750,490 900,520 1050,480 1200,430 1350,460 1500,420" fill="none" stroke="#1fb6ff" stroke-width="4" opacity="0.9" stroke-linejoin="round" stroke-linecap="round"/>
</svg>